<?xml version="1.0" encoding="utf-8"?>
<!-- Generator: Adobe Illustrator 21.0.0, SVG Export Plug-In . SVG Version: 6.00 Build 0)  -->
<svg version="1.1" id="圖層_1" xmlns="http://www.w3.org/2000/svg" xmlns:xlink="http://www.w3.org/1999/xlink" x="0px" y="0px"
	 viewBox="0 0 24 24" style="enable-background:new 0 0 24 24;" xml:space="preserve">
<style type="text/css">
	.st0{fill:#FFFFFF;}
</style>
<path class="st0" d="M12,6.6c0,0-4.2,0-5.3,0.3C6.2,7,5.7,7.5,5.5,8.1C5.2,9.2,5.2,12,5.2,12s0,2.8,0.3,3.9c0.1,0.5,0.7,1.1,1.2,1.2
	c1.1,0.3,5.3,0.3,5.3,0.3s4.2,0,5.3-0.3c0.5-0.1,1.1-0.7,1.2-1.2c0.3-1.1,0.3-3.9,0.3-3.9s0-2.8-0.3-3.9c-0.1-0.5-0.7-1.1-1.2-1.2
	C16.2,6.6,12,6.6,12,6.6z M12,7.9c1.9,0,4.3,0.1,4.9,0.3c0.1,0,0.3,0.1,0.3,0.3c0.1,0.5,0.3,2.4,0.3,3.5s-0.1,3-0.3,3.5
	c0,0.1-0.1,0.3-0.3,0.3c-0.5,0.1-3,0.3-4.9,0.3s-4.3-0.1-4.9-0.3c-0.1,0-0.3-0.1-0.3-0.3C6.7,15,6.6,13.1,6.6,12s0.1-3,0.3-3.5
	c0-0.1,0.1-0.3,0.3-0.3C7.7,8.1,10.1,7.9,12,7.9z M10.6,9.7v4.7l4.1-2.3L10.6,9.7z"/>
</svg>
